<svg width="51" height="52" viewBox="0 0 51 52" fill="none" xmlns="http://www.w3.org/2000/svg">
<path d="M22.8343 42.7197H28.3241V37.0759H22.8343V42.7197ZM25.5792 8.85698C22.6672 8.85698 19.8745 10.0462 17.8154 12.163C15.7563 14.2799 14.5995 17.1509 14.5995 20.1445H20.0894C20.0894 18.6477 20.6677 17.2122 21.6973 16.1538C22.7268 15.0954 24.1232 14.5008 25.5792 14.5008C27.0352 14.5008 28.4315 15.0954 29.4611 16.1538C30.4906 17.2122 31.069 18.6477 31.069 20.1445C31.069 25.7883 22.8343 25.0829 22.8343 34.254H28.3241C28.3241 27.9047 36.5588 27.1993 36.5588 20.1445C36.5588 17.1509 35.402 14.2799 33.3429 12.163C31.2839 10.0462 28.4911 8.85698 25.5792 8.85698ZM6.36482 0.391304H44.7935C46.2495 0.391304 47.6459 0.985915 48.6754 2.04433C49.7049 3.10274 50.2833 4.53826 50.2833 6.03509V45.5416C50.2833 47.0384 49.7049 48.4739 48.6754 49.5323C47.6459 50.5907 46.2495 51.1854 44.7935 51.1854H6.36482C4.90883 51.1854 3.51247 50.5907 2.48293 49.5323C1.45339 48.4739 0.875 47.0384 0.875 45.5416V6.03509C0.875 4.53826 1.45339 3.10274 2.48293 2.04433C3.51247 0.985915 4.90883 0.391304 6.36482 0.391304Z" fill="#F31D1D"/>
</svg>
